<svg version="1.1" id="web" xmlns="http://www.w3.org/2000/svg" xmlns:xlink="http://www.w3.org/1999/xlink" width="512px" height="512px" viewBox="0 0 40.96 40.96" enable-background="new 0 0 64 64" xml:space="preserve">
    <circle cx="20.48" cy="20.48" r="23" fill="#072147"/>

  <path fill="#0044ffff" d="m37.119 27.283 -0.749 -0.381c-4.751 -4.988 -5.845 -12.338 -2.723 -18.371l0.434 -0.434a0.639 0.639 0 1 0 -0.906 -0.904l-0.38 0.379 -0.004 -0.009a15.994 15.994 0 0 1 -18.296 -2.419l-0.504 -0.99a0.64 0.64 0 1 0 -1.14 0.581l0.369 0.724 -0.023 0.003A15.994 15.994 0 0 1 4.764 21.924L4.032 22.042a0.641 0.641 0 0 0 0.099 1.272 0.64 0.64 0 0 0 0.1 -0.008l0.65 -0.103q0.059 0.013 0.117 0.027l0.01 0.02 0.024 -0.013c6.872 1.41 12.063 6.771 12.991 13.443l-0.057 0.36a0.639 0.639 0 1 0 1.263 0.2l0.135 -0.854a16 16 0 0 1 16.772 -8.159l0.001 -0.008 0.397 0.202a0.64 0.64 0 0 0 0.582 -1.14M33.6 25.49l-2.307 -1.176a15.974 15.974 0 0 1 -2.174 -11.254l2.226 -2.226c-1.5 4.944 -0.676 10.325 2.255 14.656M21.491 18.877l-1.474 -2.893c1.173 0.38 2.381 0.63 3.615 0.751zm3.112 -1.302a17.152 17.152 0 0 0 0.789 3.733l-2.996 -1.526zm-5.764 -1.085 1.512 2.968 -3.02 0.478a17.088 17.088 0 0 0 1.508 -3.446m1.713 4.232 -0.515 3.25a17.088 17.088 0 0 0 -2.613 -2.755zm1.264 0.2 2.778 1.415a17.152 17.152 0 0 0 -3.303 1.901zm5.278 1.253a15.936 15.936 0 0 1 -1.288 -5.803l1.836 -1.836a17.242 17.242 0 0 0 1.622 8.746zm-2.257 -6.643a15.936 15.936 0 0 1 -5.676 -1.229l-1.102 -2.163a17.216 17.216 0 0 0 7.267 1.61c0.45 0 0.902 -0.026 1.354 -0.061zm-7.983 -2.939 1.11 2.18a15.872 15.872 0 0 1 -2.302 5.427l-2.537 0.402a17.216 17.216 0 0 0 3.729 -8.009m-1.182 8.902a15.936 15.936 0 0 1 4.079 4.286l-0.367 2.318a17.216 17.216 0 0 0 -6.345 -6.188zm5.32 4.627a15.936 15.936 0 0 1 5.117 -3.011l2.312 1.178a17.216 17.216 0 0 0 -7.811 4.236zm4.353 -15.439c1.716 0 3.442 -0.257 5.117 -0.777l-2.312 2.312a15.981 15.981 0 0 1 -11.114 -2.085l-1.162 -2.282a17.261 17.261 0 0 0 9.471 2.831m-10.719 -2.459 1.186 2.327c-0.245 3.929 -1.923 7.594 -4.726 10.375l-3.184 0.504a17.254 17.254 0 0 0 6.724 -13.206M7.916 22.723l2.95 -0.467a15.981 15.981 0 0 1 8.186 7.937l-0.508 3.21c-1.681 -4.909 -5.578 -8.842 -10.628 -10.68m11.934 10.614 0.406 -2.565a15.981 15.981 0 0 1 10.027 -5.535l2.934 1.495a17.261 17.261 0 0 0 -13.367 6.605"/>
</svg>
